<?xml version="1.0" encoding="UTF-8"?>
<svg version="1.1" xmlns="http://www.w3.org/2000/svg" width="48" height="48">
<path d="M0 0 C15.84 0 31.68 0 48 0 C48 15.84 48 31.68 48 48 C32.16 48 16.32 48 0 48 C0 32.16 0 16.32 0 0 Z " fill="#FEFEFE" transform="translate(0,0)"/>
<path d="M0 0 C5.11694705 4.77581724 6.96153684 11.53522447 7.3125 18.4375 C7.09704831 22.73114443 5.67207596 25.36826071 2.8125 28.625 C-0.09772962 30.3686557 -2.79866346 31.05096349 -6.125 31.625 C-9.68808165 32.2881437 -12.88281121 33.0828119 -16.1875 34.625 C-15.9503125 33.61308594 -15.713125 32.60117187 -15.46875 31.55859375 C-15.13935729 26.95167069 -16.40870022 24.49897212 -18.6875 20.6875 C-22.77695398 13.20814297 -22.77695398 13.20814297 -22.375 9.0625 C-20.55784111 3.80230322 -18.73099132 1.49867433 -13.875 -1.25 C-8.48194804 -2.89533789 -5.1115818 -2.20499607 0 0 Z " fill="#EB5327" transform="translate(31.1875,7.375)"/>
<path d="M0 0 C2.97 0 5.94 0 9 0 C9 0.99 9 1.98 9 3 C6.69 3 4.38 3 2 3 C2 3.99 2 4.98 2 6 C2.94875 5.938125 3.8975 5.87625 4.875 5.8125 C5.90625 5.874375 6.9375 5.93625 8 6 C10.15502531 9.23253796 10.46856135 10.25150923 10 14 C8.875 15.8125 8.875 15.8125 7 17 C3.71501168 17.41062354 1.84154581 17.6171336 -0.875 15.625 C-2 14 -2 14 -2 12 C-0.68 12 0.64 12 2 12 C2 12.66 2 13.32 2 14 C3.32 14 4.64 14 6 14 C5.67 12.35 5.34 10.7 5 9 C2.69 9.33 0.38 9.66 -2 10 C-1.34 6.7 -0.68 3.4 0 0 Z " fill="#FEFAF9" transform="translate(19,10)"/>
<path d="M0 0 C0.33 0 0.66 0 1 0 C1.33287684 3.57842598 1.31254433 5.49134942 -0.59375 8.59375 C-3.57063119 11.57063119 -5.6492426 12.03335609 -9.75 12.8125 C-10.92046875 13.04582031 -12.0909375 13.27914062 -13.296875 13.51953125 C-14.18890625 13.67808594 -15.0809375 13.83664063 -16 14 C-16.309375 13.21625 -16.61875 12.4325 -16.9375 11.625 C-17.92875038 9.07669872 -17.92875038 9.07669872 -19 7 C-17.80503906 7.08701172 -17.80503906 7.08701172 -16.5859375 7.17578125 C-9.45941229 7.67857302 -9.45941229 7.67857302 -3.3125 4.625 C-1.01439825 2.24185729 -1.01439825 2.24185729 0 0 Z " fill="#FEFCFB" transform="translate(35,24)"/>
<path d="M0 0 C2 3 2 3 1.9375 5.375 C0.58683623 9.15685856 -0.74453317 10.57435805 -4 13 C-6.99951601 13.96664901 -9.97768218 14.68285994 -13.0625 15.32421875 C-15.86839135 15.96972301 -18.3615795 16.86024115 -21 18 C-20.05864284 15.4326623 -19.41520729 14.2335541 -17 12.875 C-13.47043414 11.84554329 -9.94215901 11.27745129 -6.3046875 10.7578125 C-3.36906475 9.79253994 -2.53375024 8.64172754 -1 6 C-0.27954633 2.84881675 -0.27954633 2.84881675 0 0 Z " fill="#EC5C33" transform="translate(36,24)"/>
</svg>
