<?xml version="1.0" encoding="UTF-8"?>
<svg version="1.1" xmlns="http://www.w3.org/2000/svg" width="48" height="48">
<path d="M0 0 C5.44392186 3.24563629 9.86837284 8.27703761 11.5625 14.4375 C11.81 16.2009375 11.81 16.2009375 12.0625 18 C12.33066424 21.27463677 12.33066424 21.27463677 13.57421875 23.25390625 C16.1202595 28.87934805 15.28472585 36.50062158 13.1875 42.125 C11.5625 44.4375 11.5625 44.4375 9.5625 46.4375 C6.4375 46.5625 6.4375 46.5625 3.5625 46.4375 C4.366875 45.426875 5.17125 44.41625 6 43.375 C8.66797019 39.68204691 9.28660871 36.94372444 9.5625 32.4375 C9.18738281 32.90800781 8.81226563 33.37851562 8.42578125 33.86328125 C4.45433722 38.69503809 0.90005502 42.24518033 -5.4375 43.4375 C-7.8532906 43.50581987 -10.27084713 43.52237642 -12.6875 43.5 C-13.95078125 43.49097656 -15.2140625 43.48195312 -16.515625 43.47265625 C-17.47984375 43.46105469 -18.4440625 43.44945312 -19.4375 43.4375 C-18.7775 44.4275 -18.1175 45.4175 -17.4375 46.4375 C-20.1875 46.8125 -20.1875 46.8125 -23.4375 46.4375 C-25.3052657 44.39463127 -26.21256106 42.87850152 -27.4375 40.4375 C-27.95828125 39.50164063 -28.4790625 38.56578125 -29.015625 37.6015625 C-33.38441155 29.17021275 -35.39239988 21.41111947 -32.76953125 12.0546875 C-30.24635186 6.25908769 -25.74493731 2.0579223 -20.109375 -0.703125 C-13.83173484 -2.72224903 -6.06554123 -2.7283226 0 0 Z M-17.4375 7.4375 C-17.7675 8.984375 -18.0975 10.53125 -18.4375 12.125 C-18.623125 12.99511719 -18.80875 13.86523438 -19 14.76171875 C-19.42722047 17.37462964 -19.51366201 19.79563038 -19.4375 22.4375 C-18.73625 22.293125 -18.035 22.14875 -17.3125 22 C-11.37083333 20.8375 -11.37083333 20.8375 -8.4375 20.4375 C-7.4375 21.4375 -7.4375 21.4375 -7.375 25 C-7.395625 26.134375 -7.41625 27.26875 -7.4375 28.4375 C-9.7475 28.4375 -12.0575 28.4375 -14.4375 28.4375 C-14.7675 27.7775 -15.0975 27.1175 -15.4375 26.4375 C-17.0875 26.4375 -18.7375 26.4375 -20.4375 26.4375 C-19.48704384 29.9541878 -18.74616369 31.22704749 -15.6875 33.3125 C-11.95624468 34.60408838 -10.17459808 34.65611894 -6.4375 33.4375 C-3.19967586 30.72472842 -1.59567181 28.86104632 -1.125 24.625 C-1.52051263 20.59077115 -2.38793811 19.09609242 -5.4375 16.4375 C-8.88147075 16.08122716 -11.30889505 15.87319752 -14.4375 17.4375 C-14.4375 15.4575 -14.4375 13.4775 -14.4375 11.4375 C-10.4775 11.4375 -6.5175 11.4375 -2.4375 11.4375 C-2.4375 10.1175 -2.4375 8.7975 -2.4375 7.4375 C-7.3875 7.4375 -12.3375 7.4375 -17.4375 7.4375 Z " fill="#C8602F" transform="translate(33.4375,1.5625)"/>
</svg>
